<svg xmlns="http://www.w3.org/2000/svg" version="1.1" xmlns:xlink="http://www.w3.org/1999/xlink" xmlns:svgjs="http://svgjs.com/svgjs" width="122.88" height="103.04"><svg version="1.1" id="SvgjsSvg1000" xmlns="http://www.w3.org/2000/svg" xmlns:xlink="http://www.w3.org/1999/xlink" x="0px" y="0px" viewBox="0 0 122.88 103.04" style="enable-background:new 0 0 122.88 103.04" xml:space="preserve"><style type="text/css">.st0{fill-rule:evenodd;clip-rule:evenodd;fill:#5E990B;} .st1{fill-rule:evenodd;clip-rule:evenodd;fill:#7F573C;} .st2{fill-rule:evenodd;clip-rule:evenodd;fill:#FFA712;} .st3{fill-rule:evenodd;clip-rule:evenodd;fill:#F5AC31;} .st4{fill-rule:evenodd;clip-rule:evenodd;fill:#537918;}</style><g><path class="st0" d="M76.72,8.51c2.08-1.95,4.45-3.53,7.3-4.53c7.38-2.59,17.21-0.47,23.9,3.19c5.36,2.93,10.91,7.53,14.96,12.41 c-5.57,2.16-13.35,3.19-21.79,3.7c-6.45,0.39-12.41-0.57-18.15-3.49l0.26,0.32l-0.23-0.17c-3.02-2.1-5.96-4.21-8.61-6.39l2.31-4.96 L76.72,8.51L76.72,8.51z"></path><path class="st1" d="M76.6,8.63l0.12-0.12l-0.04,0.07l-2.31,4.96c-1.62-1.33-3.22-2.83-4.74-4.07l3.95-7.87 c0.72-1.44,2.47-2.02,3.91-1.3c1.44,0.72,2.02,2.47,1.3,3.91L76.6,8.63L76.6,8.63L76.6,8.63z"></path><path class="st2" d="M82.15,27.1c-1.43-2.33-3.16-4.54-5.23-6.62c-2.03-2.03-4.4-3.95-7.14-5.72c-7.94-2.95-15.02-3.76-21.32-2.79 C41.74,13,35.87,16.09,30.79,20.8c-9.49,8.8-9.97,15.94-10.57,24.78c-0.25,3.67-0.51,7.61-1.37,12.09 c-0.95,4.98-2.42,9.39-4.27,13.19c-1.96,4.03-4.35,7.38-7,10c-2.24,3.01-3.08,5.52-2.45,7.51c0.01,0.03,0.02,0.06,0.03,0.09 c0.69,2.05,3,3.87,6.99,5.45c0.05,0.02,0.1,0.04,0.15,0.06c13.07,5.16,26.63,5.41,38.67,1.32c11.96-4.06,22.42-12.42,29.41-24.53 c4.2-7.28,6.84-15.18,7.14-23.05C87.78,40.7,86.18,33.68,82.15,27.1L82.15,27.1L82.15,27.1z M82.94,19.79 c1.27,1.53,2.41,3.11,3.41,4.75c4.57,7.45,6.38,15.4,6.08,23.35c-0.33,8.71-3.21,17.38-7.79,25.33 c-7.62,13.19-19.04,22.3-32.09,26.74c-13.11,4.45-27.85,4.19-42.04-1.41c-0.05-0.02-0.1-0.03-0.15-0.05 c-5.45-2.15-8.71-4.99-9.88-8.5c-0.02-0.04-0.03-0.09-0.05-0.14c-1.15-3.64-0.01-7.68,3.31-12.08l0,0c0.07-0.1,0.16-0.19,0.25-0.28 c2.31-2.25,4.41-5.19,6.15-8.77c1.67-3.43,3-7.43,3.87-11.98c0.8-4.19,1.06-7.97,1.29-11.49c0.67-9.93,1.21-17.93,12.13-28.06 c5.78-5.36,12.52-8.89,20.26-10.09c6.62-1.02,13.92-0.33,21.95,2.38C74.92,12.07,79.43,15.43,82.94,19.79L82.94,19.79z"></path><path class="st3" d="M83.65,26.23c-1.49-2.4-3.3-4.67-5.46-6.81c-2.12-2.09-4.6-4.06-7.46-5.88c-8.3-3.03-15.69-3.87-22.28-2.87 c-7.02,1.06-13.15,4.24-18.46,9.08c-9.92,9.05-10.42,16.39-11.04,25.48c-0.26,3.77-0.53,7.82-1.43,12.43 c-0.99,5.12-2.53,9.65-4.46,13.56C11,75.36,8.5,78.81,5.74,81.5c-2.34,3.09-3.22,5.67-2.56,7.72c0.01,0.03,0.02,0.06,0.03,0.09 c0.72,2.11,3.13,3.98,7.3,5.6c0.05,0.02,0.1,0.04,0.16,0.06c13.66,5.31,27.82,5.56,40.4,1.36c12.5-4.17,23.42-12.77,30.73-25.22 c4.39-7.48,7.15-15.61,7.46-23.7C89.53,40.22,87.86,33,83.65,26.23L83.65,26.23L83.65,26.23z"></path><path class="st4" d="M77.4,11.55c16.52,0.74,20.88-0.05,36.33,5.95C97.39,16.78,93.02,16.42,77.4,11.55L77.4,11.55z"></path></g></svg><style>@media (prefers-color-scheme: light) { :root { filter: none; } }
</style></svg>